<mxfile host="Electron" agent="Mozilla/5.0 (Windows NT 10.0; Win64; x64) AppleWebKit/537.36 (KHTML, like Gecko) draw.io/26.0.9 Chrome/128.0.6613.186 Electron/32.2.5 Safari/537.36" version="26.0.9">
  <diagram name="Page-1" id="cfVzwyDOA_gCVhsJaXaL">
    <mxGraphModel dx="724" dy="434" grid="1" gridSize="10" guides="1" tooltips="1" connect="1" arrows="1" fold="1" page="1" pageScale="1" pageWidth="850" pageHeight="1100" math="0" shadow="0">
      <root>
        <mxCell id="0" />
        <mxCell id="1" parent="0" />
        <mxCell id="sqU5LscsGwwLqYNNiYYk-1" value="frame" style="shape=umlFrame;whiteSpace=wrap;html=1;pointerEvents=0;" vertex="1" parent="1">
          <mxGeometry x="10" y="10" width="520" height="490" as="geometry" />
        </mxCell>
        <mxCell id="sqU5LscsGwwLqYNNiYYk-3" value=":Client" style="html=1;whiteSpace=wrap;" vertex="1" parent="1">
          <mxGeometry x="60" y="60" width="70" height="50" as="geometry" />
        </mxCell>
        <mxCell id="sqU5LscsGwwLqYNNiYYk-4" value=":Proxy" style="html=1;whiteSpace=wrap;" vertex="1" parent="1">
          <mxGeometry x="140" y="60" width="70" height="50" as="geometry" />
        </mxCell>
        <mxCell id="sqU5LscsGwwLqYNNiYYk-5" value=":RealMitglied" style="html=1;whiteSpace=wrap;" vertex="1" parent="1">
          <mxGeometry x="217.5" y="60" width="75" height="50" as="geometry" />
        </mxCell>
        <mxCell id="sqU5LscsGwwLqYNNiYYk-6" value="" style="html=1;points=[[0,0,0,0,5],[0,1,0,0,-5],[1,0,0,0,5],[1,1,0,0,-5]];perimeter=orthogonalPerimeter;outlineConnect=0;targetShapes=umlLifeline;portConstraint=eastwest;newEdgeStyle={&quot;curved&quot;:0,&quot;rounded&quot;:0};" vertex="1" parent="1">
          <mxGeometry x="90" y="110" width="10" height="400" as="geometry" />
        </mxCell>
        <mxCell id="sqU5LscsGwwLqYNNiYYk-7" value="" style="endArrow=none;html=1;rounded=0;entryX=0.5;entryY=1;entryDx=0;entryDy=0;dashed=1;" edge="1" parent="1" target="sqU5LscsGwwLqYNNiYYk-4">
          <mxGeometry width="50" height="50" relative="1" as="geometry">
            <mxPoint x="175" y="510" as="sourcePoint" />
            <mxPoint x="450" y="190" as="targetPoint" />
          </mxGeometry>
        </mxCell>
        <mxCell id="sqU5LscsGwwLqYNNiYYk-8" value="" style="endArrow=none;html=1;rounded=0;entryX=0.5;entryY=1;entryDx=0;entryDy=0;dashed=1;" edge="1" parent="1" target="sqU5LscsGwwLqYNNiYYk-5">
          <mxGeometry width="50" height="50" relative="1" as="geometry">
            <mxPoint x="255" y="510" as="sourcePoint" />
            <mxPoint x="354.65999999999997" y="110" as="targetPoint" />
          </mxGeometry>
        </mxCell>
        <mxCell id="sqU5LscsGwwLqYNNiYYk-9" value="" style="html=1;points=[[0,0,0,0,5],[0,1,0,0,-5],[1,0,0,0,5],[1,1,0,0,-5]];perimeter=orthogonalPerimeter;outlineConnect=0;targetShapes=umlLifeline;portConstraint=eastwest;newEdgeStyle={&quot;curved&quot;:0,&quot;rounded&quot;:0};" vertex="1" parent="1">
          <mxGeometry x="170" y="140" width="10" height="180" as="geometry" />
        </mxCell>
        <mxCell id="sqU5LscsGwwLqYNNiYYk-10" value="giveRating()" style="html=1;verticalAlign=bottom;endArrow=block;curved=0;rounded=0;entryX=0;entryY=0;entryDx=0;entryDy=5;" edge="1" target="sqU5LscsGwwLqYNNiYYk-9" parent="1">
          <mxGeometry relative="1" as="geometry">
            <mxPoint x="100" y="145" as="sourcePoint" />
          </mxGeometry>
        </mxCell>
        <mxCell id="sqU5LscsGwwLqYNNiYYk-15" value="" style="html=1;points=[[0,0,0,0,5],[0,1,0,0,-5],[1,0,0,0,5],[1,1,0,0,-5]];perimeter=orthogonalPerimeter;outlineConnect=0;targetShapes=umlLifeline;portConstraint=eastwest;newEdgeStyle={&quot;curved&quot;:0,&quot;rounded&quot;:0};" vertex="1" parent="1">
          <mxGeometry x="175" y="170" width="10" height="40" as="geometry" />
        </mxCell>
        <mxCell id="sqU5LscsGwwLqYNNiYYk-16" value="isOwner()" style="html=1;align=left;spacingLeft=2;endArrow=block;rounded=0;edgeStyle=orthogonalEdgeStyle;curved=0;rounded=0;" edge="1" target="sqU5LscsGwwLqYNNiYYk-15" parent="1">
          <mxGeometry relative="1" as="geometry">
            <mxPoint x="180" y="150" as="sourcePoint" />
            <Array as="points">
              <mxPoint x="210" y="180" />
            </Array>
          </mxGeometry>
        </mxCell>
        <mxCell id="sqU5LscsGwwLqYNNiYYk-17" value="bool" style="html=1;align=left;spacingLeft=2;endArrow=open;rounded=0;edgeStyle=orthogonalEdgeStyle;curved=0;rounded=0;dashed=1;endFill=0;" edge="1" parent="1" target="sqU5LscsGwwLqYNNiYYk-9">
          <mxGeometry relative="1" as="geometry">
            <mxPoint x="185" y="190" as="sourcePoint" />
            <Array as="points">
              <mxPoint x="210" y="190" />
              <mxPoint x="210" y="220" />
            </Array>
            <mxPoint x="190" y="220" as="targetPoint" />
          </mxGeometry>
        </mxCell>
        <mxCell id="sqU5LscsGwwLqYNNiYYk-19" value="alt" style="shape=umlFrame;whiteSpace=wrap;html=1;pointerEvents=0;" vertex="1" parent="1">
          <mxGeometry x="20" y="250" width="300" height="240" as="geometry" />
        </mxCell>
        <mxCell id="sqU5LscsGwwLqYNNiYYk-28" value="" style="html=1;points=[[0,0,0,0,5],[0,1,0,0,-5],[1,0,0,0,5],[1,1,0,0,-5]];perimeter=orthogonalPerimeter;outlineConnect=0;targetShapes=umlLifeline;portConstraint=eastwest;newEdgeStyle={&quot;curved&quot;:0,&quot;rounded&quot;:0};" vertex="1" parent="1">
          <mxGeometry x="170" y="390" width="10" height="100" as="geometry" />
        </mxCell>
        <mxCell id="sqU5LscsGwwLqYNNiYYk-30" value="" style="endArrow=none;html=1;rounded=0;exitX=0.003;exitY=0.456;exitDx=0;exitDy=0;exitPerimeter=0;entryX=0.998;entryY=0.459;entryDx=0;entryDy=0;entryPerimeter=0;" edge="1" parent="1" source="sqU5LscsGwwLqYNNiYYk-19" target="sqU5LscsGwwLqYNNiYYk-19">
          <mxGeometry width="50" height="50" relative="1" as="geometry">
            <mxPoint x="160" y="370" as="sourcePoint" />
            <mxPoint x="210" y="320" as="targetPoint" />
          </mxGeometry>
        </mxCell>
        <mxCell id="sqU5LscsGwwLqYNNiYYk-33" value="-1.0" style="html=1;verticalAlign=bottom;endArrow=open;dashed=1;endSize=8;curved=0;rounded=0;exitX=0;exitY=1;exitDx=0;exitDy=-5;" edge="1" parent="1">
          <mxGeometry relative="1" as="geometry">
            <mxPoint x="100" y="290" as="targetPoint" />
            <mxPoint x="170" y="290" as="sourcePoint" />
          </mxGeometry>
        </mxCell>
        <mxCell id="sqU5LscsGwwLqYNNiYYk-34" value="user = mitglied" style="text;html=1;align=center;verticalAlign=middle;resizable=0;points=[];autosize=1;strokeColor=none;fillColor=none;" vertex="1" parent="1">
          <mxGeometry x="10" y="300" width="100" height="30" as="geometry" />
        </mxCell>
        <mxCell id="sqU5LscsGwwLqYNNiYYk-35" value="&amp;nbsp;user != mitglied" style="text;html=1;align=center;verticalAlign=middle;resizable=0;points=[];autosize=1;strokeColor=none;fillColor=none;" vertex="1" parent="1">
          <mxGeometry x="5" y="370" width="110" height="30" as="geometry" />
        </mxCell>
        <mxCell id="sqU5LscsGwwLqYNNiYYk-36" value="" style="html=1;points=[[0,0,0,0,5],[0,1,0,0,-5],[1,0,0,0,5],[1,1,0,0,-5]];perimeter=orthogonalPerimeter;outlineConnect=0;targetShapes=umlLifeline;portConstraint=eastwest;newEdgeStyle={&quot;curved&quot;:0,&quot;rounded&quot;:0};" vertex="1" parent="1">
          <mxGeometry x="250" y="410" width="10" height="30" as="geometry" />
        </mxCell>
        <mxCell id="sqU5LscsGwwLqYNNiYYk-37" value="giveRating()" style="html=1;verticalAlign=bottom;endArrow=block;curved=0;rounded=0;entryX=0;entryY=0;entryDx=0;entryDy=5;" edge="1" target="sqU5LscsGwwLqYNNiYYk-36" parent="1">
          <mxGeometry relative="1" as="geometry">
            <mxPoint x="180" y="415" as="sourcePoint" />
          </mxGeometry>
        </mxCell>
        <mxCell id="sqU5LscsGwwLqYNNiYYk-38" value="double" style="html=1;verticalAlign=bottom;endArrow=open;dashed=1;endSize=8;curved=0;rounded=0;exitX=0;exitY=1;exitDx=0;exitDy=-5;" edge="1" source="sqU5LscsGwwLqYNNiYYk-36" parent="1" target="sqU5LscsGwwLqYNNiYYk-28">
          <mxGeometry relative="1" as="geometry">
            <mxPoint x="180" y="485" as="targetPoint" />
          </mxGeometry>
        </mxCell>
        <mxCell id="sqU5LscsGwwLqYNNiYYk-40" value="double" style="html=1;verticalAlign=bottom;endArrow=open;dashed=1;endSize=8;curved=0;rounded=0;exitX=0;exitY=1;exitDx=0;exitDy=-5;" edge="1" parent="1">
          <mxGeometry relative="1" as="geometry">
            <mxPoint x="100" y="460" as="targetPoint" />
            <mxPoint x="170" y="460" as="sourcePoint" />
          </mxGeometry>
        </mxCell>
      </root>
    </mxGraphModel>
  </diagram>
</mxfile>
